<mxfile host="65bd71144e">
    <diagram id="I4rder3DfL9gE5td3QnL" name="Page-1">
        <mxGraphModel dx="590" dy="542" grid="1" gridSize="10" guides="1" tooltips="1" connect="1" arrows="1" fold="1" page="1" pageScale="1" pageWidth="850" pageHeight="1100" math="0" shadow="0">
            <root>
                <mxCell id="0"/>
                <mxCell id="1" parent="0"/>
                <mxCell id="14" style="edgeStyle=none;html=1;fontColor=#006EAF;endArrow=open;endFill=0;fillColor=#1ba1e2;strokeColor=#006EAF;" edge="1" parent="1" source="2" target="3">
                    <mxGeometry relative="1" as="geometry"/>
                </mxCell>
                <mxCell id="2" value="" style="strokeWidth=1;html=1;shape=mxgraph.flowchart.start_2;whiteSpace=wrap;fillColor=none;fontColor=#ffffff;strokeColor=#006EAF;" vertex="1" parent="1">
                    <mxGeometry x="50" y="155" width="30" height="30" as="geometry"/>
                </mxCell>
                <mxCell id="15" style="edgeStyle=none;html=1;exitX=1;exitY=0.5;exitDx=0;exitDy=0;fontColor=#006EAF;endArrow=open;endFill=0;fillColor=#1ba1e2;strokeColor=#006EAF;" edge="1" parent="1" source="3" target="5">
                    <mxGeometry relative="1" as="geometry"/>
                </mxCell>
                <mxCell id="3" value="Identificar los componentes iniciales" style="rounded=0;whiteSpace=wrap;html=1;absoluteArcSize=1;arcSize=14;strokeWidth=1;fillColor=none;fontColor=#006EAF;strokeColor=#006EAF;" vertex="1" parent="1">
                    <mxGeometry x="120" y="140" width="100" height="60" as="geometry"/>
                </mxCell>
                <mxCell id="16" style="edgeStyle=none;html=1;exitX=1;exitY=0.5;exitDx=0;exitDy=0;fontColor=#006EAF;endArrow=open;endFill=0;fillColor=#1ba1e2;strokeColor=#006EAF;" edge="1" parent="1" source="5" target="6">
                    <mxGeometry relative="1" as="geometry"/>
                </mxCell>
                <mxCell id="5" value="Asignar requerimientos a componentes" style="rounded=0;whiteSpace=wrap;html=1;absoluteArcSize=1;arcSize=14;strokeWidth=1;fillColor=none;fontColor=#006EAF;strokeColor=#006EAF;" vertex="1" parent="1">
                    <mxGeometry x="260" y="140" width="110" height="60" as="geometry"/>
                </mxCell>
                <mxCell id="11" style="edgeStyle=none;html=1;fontColor=#006EAF;endArrow=open;endFill=0;fillColor=#1ba1e2;strokeColor=#006EAF;" edge="1" parent="1" source="6" target="7">
                    <mxGeometry relative="1" as="geometry"/>
                </mxCell>
                <mxCell id="6" value="Analizar roles y responsabilidades" style="rounded=0;whiteSpace=wrap;html=1;absoluteArcSize=1;arcSize=14;strokeWidth=1;fillColor=none;fontColor=#006EAF;strokeColor=#006EAF;" vertex="1" parent="1">
                    <mxGeometry x="420" y="140" width="110" height="60" as="geometry"/>
                </mxCell>
                <mxCell id="9" style="edgeStyle=none;html=1;exitX=0;exitY=0.5;exitDx=0;exitDy=0;fontColor=#006EAF;endArrow=open;endFill=0;fillColor=#1ba1e2;strokeColor=#006EAF;" edge="1" parent="1" source="7" target="8">
                    <mxGeometry relative="1" as="geometry"/>
                </mxCell>
                <mxCell id="7" value="Analizar características arquitectónicas" style="rounded=0;whiteSpace=wrap;html=1;absoluteArcSize=1;arcSize=14;strokeWidth=1;fillColor=none;fontColor=#006EAF;strokeColor=#006EAF;" vertex="1" parent="1">
                    <mxGeometry x="540" y="40" width="110" height="60" as="geometry"/>
                </mxCell>
                <mxCell id="10" style="edgeStyle=none;html=1;fontColor=#006EAF;endArrow=open;endFill=0;fillColor=#1ba1e2;strokeColor=#006EAF;" edge="1" parent="1" source="8" target="6">
                    <mxGeometry relative="1" as="geometry"/>
                </mxCell>
                <mxCell id="13" style="edgeStyle=none;html=1;exitX=0;exitY=0.5;exitDx=0;exitDy=0;fontColor=#006EAF;endArrow=open;endFill=0;fillColor=#1ba1e2;strokeColor=#006EAF;" edge="1" parent="1" source="8" target="12">
                    <mxGeometry relative="1" as="geometry"/>
                </mxCell>
                <mxCell id="8" value="Restructurar componentes" style="rounded=0;whiteSpace=wrap;html=1;absoluteArcSize=1;arcSize=14;strokeWidth=1;fillColor=none;fontColor=#006EAF;strokeColor=#006EAF;" vertex="1" parent="1">
                    <mxGeometry x="340" y="40" width="100" height="60" as="geometry"/>
                </mxCell>
                <mxCell id="12" value="" style="ellipse;html=1;shape=endState;fillColor=none;strokeColor=#006EAF;rounded=0;strokeWidth=1;fontColor=#ffffff;" vertex="1" parent="1">
                    <mxGeometry x="260" y="55" width="30" height="30" as="geometry"/>
                </mxCell>
            </root>
        </mxGraphModel>
    </diagram>
</mxfile>